PathFileType	4	(X/Y/Z)	SUBJ63_1_walk_RCNL2025.trc
DataRate	CameraRate	NumFrames	NumMarkers	Units	OrigDataRate	OrigDataStartFrame	OrigNumFrames
100	100	4	25	mm	100	149	238
Frame#	Time	R_Shoulder			L_Shoulder			C7			J_Notch			R_Elbow			L_Elbow			R_Wrist			L_Wrist			R_Asis			L_Asis			Sacral			Thoracic			Sternum			R_Thigh_Lateral			R_Knee_Lateral			R_Shank_Lateral			R_Ankle_Lateral			R_Heel			R_Toe			L_Thigh_Lateral			L_Knee_Lateral			L_Shank_Lateral			L_Ankle_Lateral			L_Heel			L_Toe		
		X1	Y1	Z1	X2	Y2	Z2	X3	Y3	Z3	X4	Y4	Z4	X5	Y5	Z5	X6	Y6	Z6	X7	Y7	Z7	X8	Y8	Z8	X9	Y9	Z9	X10	Y10	Z10	X11	Y11	Z11	X12	Y12	Z12	X13	Y13	Z13	X14	Y14	Z14	X15	Y15	Z15	X16	Y16	Z16	X17	Y17	Z17	X18	Y18	Z18	X19	Y19	Z19	X20	Y20	Z20	X21	Y21	Z21	X22	Y22	Z22	X23	Y23	Z23	X24	Y24	Z24	X25	Y25	Z25
149	1.48000000	1170.803833	1262.962891	-142.792679	1129.220337	1252.646240	-477.493408	1071.351440	1318.203857	-305.214142	1194.064453	1216.221802	-316.972778	1186.279541	992.003723	-21.293102	991.909119	981.310303	-553.934875	1324.120728	808.641541	-0.156561	941.113007	783.180725	-636.940277	1204.662598	807.884155	-171.466095	1245.539673	817.330200	-420.201263	1004.557190	809.997986	-332.383728	992.692017	1135.650024	-294.466064	1251.156616	1040.904541	-310.555420	1050.493774	490.051758	-103.157784	1038.067627	431.539917	-146.111313	906.305298	308.840057	-106.427689	766.497986	155.963593	-188.645767	745.438965	193.070129	-239.383118	823.391968	51.171425	-205.657440	1309.506592	460.501801	-503.695923	1308.581543	435.620361	-435.873413	1333.951660	245.147278	-464.402557	1328.675171	51.045059	-389.016205	1275.488037	43.020882	-337.936554	1444.065430	42.122147	-381.997772
150	1.49000000	1186.044922	1263.729614	-144.391479	1146.065430	1252.903442	-479.239014	1087.272705	1318.924194	-307.359680	1210.002319	1216.898438	-318.554291	1199.203857	992.566956	-22.599382	1009.426697	981.188965	-555.731750	1335.724182	808.347412	-0.474722	959.517761	782.465485	-637.791504	1219.770020	807.046021	-173.521347	1261.428833	818.061707	-421.749084	1020.117004	809.555725	-333.767212	1008.482605	1136.458496	-296.526978	1267.404907	1041.723145	-311.728485	1075.295288	487.186249	-101.360527	1064.163940	428.387573	-143.744843	930.229675	310.491913	-103.702782	783.725647	165.392776	-186.628296	765.217285	204.392929	-237.310623	832.689941	56.185699	-203.608154	1323.660156	460.643646	-504.601562	1321.377441	435.733063	-436.780121	1344.507935	244.409653	-464.290314	1330.336060	50.941231	-388.706604	1276.558594	43.957188	-338.042267	1445.447510	39.598759	-381.095673
151	1.50000000	1201.383545	1264.663818	-145.976761	1162.957153	1253.390259	-480.801056	1103.159180	1319.922729	-309.331085	1225.857422	1217.686890	-320.013306	1211.906494	993.294067	-23.960875	1027.247681	981.173767	-557.474243	1346.708801	807.933167	-0.878471	979.034790	781.631622	-638.660065	1234.513428	806.508850	-175.448593	1276.939575	819.236450	-423.209930	1035.279419	809.608887	-335.097748	1024.073364	1137.624512	-298.383301	1283.333374	1042.500244	-312.747894	1101.230957	484.441376	-99.798416	1091.347900	425.432861	-141.702866	956.010864	311.816925	-101.309563	803.112427	174.624893	-184.959641	786.803162	214.977493	-235.692184	845.010132	62.080479	-200.937180	1337.099487	460.787506	-505.245636	1333.053833	435.751495	-437.489410	1353.379517	243.654358	-464.240662	1331.584106	51.009155	-388.360840	1277.359985	44.799187	-338.099792	1446.407959	37.972992	-380.274048
152	1.51000000	1216.734619	1265.743774	-147.497925	1179.857056	1254.102051	-482.158142	1118.977295	1321.177490	-311.120819	1241.594727	1218.585571	-321.313293	1224.383667	994.151550	-25.360615	1045.366821	981.257202	-559.148682	1357.123718	807.410675	-1.369193	999.623779	780.692627	-639.508148	1248.935059	806.358521	-177.185272	1292.112549	820.809875	-424.538330	1050.070068	810.206787	-336.437103	1039.450195	1139.119995	-300.062561	1298.900635	1043.225830	-313.581573	1127.973267	482.087128	-98.591713	1119.360840	422.955902	-140.075897	983.360413	312.835358	-99.361099	824.637878	183.308167	-183.696579	810.052002	224.360916	-234.671692	860.795044	68.516563	-197.626663	1349.342529	460.789398	-505.675659	1343.536499	435.646729	-437.985107	1360.382446	242.919327	-464.280029	1332.469849	51.153374	-387.981689	1277.932007	45.520695	-338.108795	1447.033936	37.019470	-379.553131
